# MagicaVoxel @ Ephtracy

# group
o 

# material
mtllib tree.mtl
usemtl palette

# normals
vn -1 0 0
vn 1 0 0
vn 0 0 1
vn 0 0 -1
vn 0 -1 0
vn 0 1 0

# texcoords
vt 0.373047 0.5
vt 0.626953 0.5

# verts
v -0.3 0.9 0.4
v -0.3 0.9 -0.3
v -0.3 1.1 -0.2
v -0.3 1.1 -0.3
v -0.3 1.2 0.4
v -0.3 1.2 0.3
v -0.3 1.9 0.4
v -0.3 1.9 0.3
v -0.3 1.9 -0.2
v -0.3 1.9 -0.3
v -0.3 2 0.2
v -0.3 2 -0.1
v -0.3 2.1 0.4
v -0.3 2.1 0.2
v -0.3 2.1 -0.1
v -0.3 2.1 -0.3
v -0.2 1.1 -0.2
v -0.2 1.1 -0.3
v -0.2 1.2 0.4
v -0.2 1.2 0.3
v -0.2 1.9 0.4
v -0.2 1.9 0.3
v -0.2 1.9 -0.2
v -0.2 1.9 -0.3
v -0.2 2 0.2
v -0.2 2 -0.1
v -0.2 2.1 0.2
v -0.2 2.1 -0.1
v -0.1 0 0.1
v -0.1 0 0
v -0.1 0.9 0.2
v -0.1 0.9 0.1
v -0.1 0.9 0
v -0.1 0.9 -0.1
v -0.1 1 0.2
v -0.1 1 0.1
v -0.1 1 0
v -0.1 1 -0.1
v 2.98023e-08 0 0.2
v 2.98023e-08 0 0.1
v 2.98023e-08 0 0
v 2.98023e-08 0 -0.1
v 2.98023e-08 0.9 0.2
v 2.98023e-08 0.9 0.1
v 2.98023e-08 0.9 0
v 2.98023e-08 0.9 -0.1
v 0.2 2 0.4
v 0.2 2 0.3
v 0.2 2 -0.2
v 0.2 2 -0.3
v 0.2 2.1 0.4
v 0.2 2.1 0.3
v 0.2 2.1 -0.2
v 0.2 2.1 -0.3
v 0.3 0.9 0.3
v 0.3 0.9 -0.2
v 0.3 1 0.3
v 0.3 1 -0.2
v -0.2 0.9 0.3
v -0.2 0.9 -0.2
v -0.2 1 0.3
v -0.2 1 -0.2
v -0.1 2 0.4
v -0.1 2 0.3
v -0.1 2 -0.2
v -0.1 2 -0.3
v -0.1 2.1 0.4
v -0.1 2.1 0.3
v -0.1 2.1 -0.2
v -0.1 2.1 -0.3
v 0.1 0 0.2
v 0.1 0 0.1
v 0.1 0 0
v 0.1 0 -0.1
v 0.1 0.9 0.2
v 0.1 0.9 0.1
v 0.1 0.9 0
v 0.1 0.9 -0.1
v 0.2 0 0.1
v 0.2 0 0
v 0.2 0.9 0.2
v 0.2 0.9 0.1
v 0.2 0.9 0
v 0.2 0.9 -0.1
v 0.2 1 0.2
v 0.2 1 0.1
v 0.2 1 0
v 0.2 1 -0.1
v 0.3 1.1 0.4
v 0.3 1.1 0.3
v 0.3 1.2 -0.2
v 0.3 1.2 -0.3
v 0.3 1.9 0.4
v 0.3 1.9 0.3
v 0.3 1.9 -0.2
v 0.3 1.9 -0.3
v 0.3 2 0.2
v 0.3 2 -0.1
v 0.3 2.1 0.2
v 0.3 2.1 -0.1
v 0.4 0.9 0.4
v 0.4 0.9 -0.3
v 0.4 1.1 0.4
v 0.4 1.1 0.3
v 0.4 1.2 -0.2
v 0.4 1.2 -0.3
v 0.4 1.9 0.4
v 0.4 1.9 0.3
v 0.4 1.9 -0.2
v 0.4 1.9 -0.3
v 0.4 2 0.2
v 0.4 2 -0.1
v 0.4 2.1 0.4
v 0.4 2.1 0.2
v 0.4 2.1 -0.1
v 0.4 2.1 -0.3
v -0.3 0.9 0.4
v -0.3 1.2 0.4
v -0.3 1.9 0.4
v -0.3 2.1 0.4
v -0.2 1.2 0.4
v -0.2 1.9 0.4
v -0.1 2 0.4
v -0.1 2.1 0.4
v 0.2 2 0.4
v 0.2 2.1 0.4
v 0.3 1.1 0.4
v 0.3 1.9 0.4
v 0.4 0.9 0.4
v 0.4 1.1 0.4
v 0.4 1.9 0.4
v 0.4 2.1 0.4
v -0.3 1.2 0.3
v -0.3 1.9 0.3
v -0.2 1.2 0.3
v -0.2 1.9 0.3
v -0.1 2 0.3
v -0.1 2.1 0.3
v 0.2 2 0.3
v 0.2 2.1 0.3
v 0.3 1.1 0.3
v 0.3 1.9 0.3
v 0.4 1.1 0.3
v 0.4 1.9 0.3
v -0.1 0.9 0.2
v -0.1 1 0.2
v 2.98023e-08 0 0.2
v 2.98023e-08 0.9 0.2
v 2.98023e-08 1 0.2
v 0.1 0 0.2
v 0.1 0.9 0.2
v 0.1 1 0.2
v 0.2 0.9 0.2
v 0.2 1 0.2
v -0.1 0 0.1
v -0.1 0.9 0.1
v 2.98023e-08 0 0.1
v 2.98023e-08 0.9 0.1
v 0.1 0 0.1
v 0.1 0.9 0.1
v 0.2 0 0.1
v 0.2 0.9 0.1
v -0.3 2 -0.1
v -0.3 2.1 -0.1
v -0.2 2 -0.1
v -0.2 2.1 -0.1
v 0.3 2 -0.1
v 0.3 2.1 -0.1
v 0.4 2 -0.1
v 0.4 2.1 -0.1
v -0.2 0.9 -0.2
v -0.2 1 -0.2
v 0.3 0.9 -0.2
v 0.3 1 -0.2
v -0.2 0.9 0.3
v -0.2 1 0.3
v 0.3 0.9 0.3
v 0.3 1 0.3
v -0.3 2 0.2
v -0.3 2.1 0.2
v -0.2 2 0.2
v -0.2 2.1 0.2
v 0.3 2 0.2
v 0.3 2.1 0.2
v 0.4 2 0.2
v 0.4 2.1 0.2
v -0.1 0 0
v -0.1 0.9 0
v 2.98023e-08 0 0
v 2.98023e-08 0.9 0
v 0.1 0 0
v 0.1 0.9 0
v 0.2 0 0
v 0.2 0.9 0
v -0.1 0.9 -0.1
v -0.1 1 -0.1
v 2.98023e-08 0 -0.1
v 2.98023e-08 0.9 -0.1
v 2.98023e-08 1 -0.1
v 0.1 0 -0.1
v 0.1 0.9 -0.1
v 0.1 1 -0.1
v 0.2 0.9 -0.1
v 0.2 1 -0.1
v -0.3 1.1 -0.2
v -0.3 1.9 -0.2
v -0.2 1.1 -0.2
v -0.2 1.9 -0.2
v -0.1 2 -0.2
v -0.1 2.1 -0.2
v 0.2 2 -0.2
v 0.2 2.1 -0.2
v 0.3 1.2 -0.2
v 0.3 1.9 -0.2
v 0.4 1.2 -0.2
v 0.4 1.9 -0.2
v -0.3 0.9 -0.3
v -0.3 1.1 -0.3
v -0.3 1.9 -0.3
v -0.3 2.1 -0.3
v -0.2 1.1 -0.3
v -0.2 1.9 -0.3
v -0.1 2 -0.3
v -0.1 2.1 -0.3
v 0.2 2 -0.3
v 0.2 2.1 -0.3
v 0.3 1.2 -0.3
v 0.3 1.9 -0.3
v 0.4 0.9 -0.3
v 0.4 1.2 -0.3
v 0.4 1.9 -0.3
v 0.4 2.1 -0.3
v 2.98023e-08 0 0.2
v 0.1 0 0.2
v -0.1 0 0.1
v 2.98023e-08 0 0.1
v 0.1 0 0.1
v 0.2 0 0.1
v -0.1 0 0
v 2.98023e-08 0 0
v 0.1 0 0
v 0.2 0 0
v 2.98023e-08 0 -0.1
v 0.1 0 -0.1
v -0.3 0.9 0.4
v 0.4 0.9 0.4
v -0.2 0.9 0.3
v 0.3 0.9 0.3
v -0.1 0.9 0.2
v 2.98023e-08 0.9 0.2
v 0.1 0.9 0.2
v 0.2 0.9 0.2
v -0.1 0.9 0.1
v 2.98023e-08 0.9 0.1
v 0.1 0.9 0.1
v 0.2 0.9 0.1
v -0.1 0.9 0
v 2.98023e-08 0.9 0
v 0.1 0.9 0
v 0.2 0.9 0
v -0.1 0.9 -0.1
v 2.98023e-08 0.9 -0.1
v 0.1 0.9 -0.1
v 0.2 0.9 -0.1
v -0.2 0.9 -0.2
v 0.3 0.9 -0.2
v -0.3 0.9 -0.3
v 0.4 0.9 -0.3
v -0.2 1 0.3
v 0.3 1 0.3
v -0.1 1 0.2
v 2.98023e-08 1 0.2
v 0.1 1 0.2
v 0.2 1 0.2
v -0.1 1 0.1
v 0.2 1 0.1
v -0.1 1 0
v 0.2 1 0
v -0.1 1 -0.1
v 2.98023e-08 1 -0.1
v 0.1 1 -0.1
v 0.2 1 -0.1
v -0.2 1 -0.2
v 0.3 1 -0.2
v -0.3 1.9 0.4
v -0.2 1.9 0.4
v 0.3 1.9 0.4
v 0.4 1.9 0.4
v -0.3 1.9 0.3
v -0.2 1.9 0.3
v 0.3 1.9 0.3
v 0.4 1.9 0.3
v -0.3 1.9 -0.2
v -0.2 1.9 -0.2
v 0.3 1.9 -0.2
v 0.4 1.9 -0.2
v -0.3 1.9 -0.3
v -0.2 1.9 -0.3
v 0.3 1.9 -0.3
v 0.4 1.9 -0.3
v 0.3 1.1 0.4
v 0.4 1.1 0.4
v 0.3 1.1 0.3
v 0.4 1.1 0.3
v -0.3 1.1 -0.2
v -0.2 1.1 -0.2
v -0.3 1.1 -0.3
v -0.2 1.1 -0.3
v -0.3 1.2 0.4
v -0.2 1.2 0.4
v -0.3 1.2 0.3
v -0.2 1.2 0.3
v 0.3 1.2 -0.2
v 0.4 1.2 -0.2
v 0.3 1.2 -0.3
v 0.4 1.2 -0.3
v -0.1 2 0.4
v 0.2 2 0.4
v -0.1 2 0.3
v 0.2 2 0.3
v -0.3 2 0.2
v -0.2 2 0.2
v 0.3 2 0.2
v 0.4 2 0.2
v -0.3 2 -0.1
v -0.2 2 -0.1
v 0.3 2 -0.1
v 0.4 2 -0.1
v -0.1 2 -0.2
v 0.2 2 -0.2
v -0.1 2 -0.3
v 0.2 2 -0.3
v -0.3 2.1 0.4
v -0.1 2.1 0.4
v 0.2 2.1 0.4
v 0.4 2.1 0.4
v -0.1 2.1 0.3
v 0.2 2.1 0.3
v -0.3 2.1 0.2
v -0.2 2.1 0.2
v 0.3 2.1 0.2
v 0.4 2.1 0.2
v -0.3 2.1 -0.1
v -0.2 2.1 -0.1
v 0.3 2.1 -0.1
v 0.4 2.1 -0.1
v -0.1 2.1 -0.2
v 0.2 2.1 -0.2
v -0.3 2.1 -0.3
v -0.1 2.1 -0.3
v 0.2 2.1 -0.3
v 0.4 2.1 -0.3

# faces
f 3/2/1 2/2/1 1/2/1
f 4/2/1 2/2/1 3/2/1
f 5/2/1 3/2/1 1/2/1
f 6/2/1 3/2/1 5/2/1
f 8/2/1 3/2/1 6/2/1
f 9/2/1 3/2/1 8/2/1
f 11/2/1 8/2/1 7/2/1
f 11/2/1 10/2/1 9/2/1
f 11/2/1 9/2/1 8/2/1
f 12/2/1 10/2/1 11/2/1
f 13/2/1 11/2/1 7/2/1
f 14/2/1 11/2/1 13/2/1
f 15/2/1 10/2/1 12/2/1
f 16/2/1 10/2/1 15/2/1
f 21/2/1 20/2/1 19/2/1
f 22/2/1 20/2/1 21/2/1
f 23/2/1 18/2/1 17/2/1
f 24/2/1 18/2/1 23/2/1
f 27/2/1 26/2/1 25/2/1
f 28/2/1 26/2/1 27/2/1
f 32/1/1 30/1/1 29/1/1
f 33/1/1 30/1/1 32/1/1
f 35/2/1 32/2/1 31/2/1
f 36/1/1 33/1/1 32/1/1
f 36/2/1 32/2/1 35/2/1
f 37/2/1 34/2/1 33/2/1
f 37/1/1 33/1/1 36/1/1
f 38/2/1 34/2/1 37/2/1
f 43/1/1 40/1/1 39/1/1
f 44/1/1 40/1/1 43/1/1
f 45/1/1 42/1/1 41/1/1
f 46/1/1 42/1/1 45/1/1
f 51/2/1 48/2/1 47/2/1
f 52/2/1 48/2/1 51/2/1
f 53/2/1 50/2/1 49/2/1
f 54/2/1 50/2/1 53/2/1
f 57/2/1 56/2/1 55/2/1
f 58/2/1 56/2/1 57/2/1
f 59/2/2 60/2/2 61/2/2
f 61/2/2 60/2/2 62/2/2
f 63/2/2 64/2/2 67/2/2
f 67/2/2 64/2/2 68/2/2
f 65/2/2 66/2/2 69/2/2
f 69/2/2 66/2/2 70/2/2
f 71/1/2 72/1/2 75/1/2
f 75/1/2 72/1/2 76/1/2
f 73/1/2 74/1/2 77/1/2
f 77/1/2 74/1/2 78/1/2
f 79/1/2 80/1/2 82/1/2
f 82/1/2 80/1/2 83/1/2
f 81/2/2 82/2/2 85/2/2
f 82/1/2 83/1/2 86/1/2
f 85/2/2 82/2/2 86/2/2
f 83/2/2 84/2/2 87/2/2
f 86/1/2 83/1/2 87/1/2
f 87/2/2 84/2/2 88/2/2
f 89/2/2 90/2/2 93/2/2
f 93/2/2 90/2/2 94/2/2
f 91/2/2 92/2/2 95/2/2
f 95/2/2 92/2/2 96/2/2
f 97/2/2 98/2/2 99/2/2
f 99/2/2 98/2/2 100/2/2
f 101/2/2 102/2/2 103/2/2
f 103/2/2 102/2/2 104/2/2
f 104/2/2 102/2/2 105/2/2
f 105/2/2 102/2/2 106/2/2
f 104/2/2 105/2/2 108/2/2
f 108/2/2 105/2/2 109/2/2
f 107/2/2 108/2/2 111/2/2
f 109/2/2 110/2/2 111/2/2
f 108/2/2 109/2/2 111/2/2
f 111/2/2 110/2/2 112/2/2
f 107/2/2 111/2/2 113/2/2
f 113/2/2 111/2/2 114/2/2
f 112/2/2 110/2/2 115/2/2
f 115/2/2 110/2/2 116/2/2
f 121/2/3 118/2/3 117/2/3
f 122/2/3 120/2/3 119/2/3
f 123/2/3 120/2/3 122/2/3
f 123/2/3 122/2/3 121/2/3
f 124/2/3 120/2/3 123/2/3
f 125/2/3 123/2/3 121/2/3
f 127/2/3 121/2/3 117/2/3
f 127/2/3 126/2/3 125/2/3
f 127/2/3 125/2/3 121/2/3
f 128/2/3 126/2/3 127/2/3
f 129/2/3 127/2/3 117/2/3
f 130/2/3 127/2/3 129/2/3
f 131/2/3 126/2/3 128/2/3
f 132/2/3 126/2/3 131/2/3
f 135/2/3 134/2/3 133/2/3
f 136/2/3 134/2/3 135/2/3
f 139/2/3 138/2/3 137/2/3
f 140/2/3 138/2/3 139/2/3
f 143/2/3 142/2/3 141/2/3
f 144/2/3 142/2/3 143/2/3
f 148/2/3 146/2/3 145/2/3
f 149/2/3 146/2/3 148/2/3
f 150/1/3 148/1/3 147/1/3
f 150/1/3 149/1/3 148/1/3
f 151/1/3 149/1/3 150/1/3
f 152/1/3 149/1/3 151/1/3
f 153/2/3 152/2/3 151/2/3
f 154/2/3 152/2/3 153/2/3
f 157/1/3 156/1/3 155/1/3
f 158/1/3 156/1/3 157/1/3
f 161/1/3 160/1/3 159/1/3
f 162/1/3 160/1/3 161/1/3
f 165/2/3 164/2/3 163/2/3
f 166/2/3 164/2/3 165/2/3
f 169/2/3 168/2/3 167/2/3
f 170/2/3 168/2/3 169/2/3
f 173/2/3 172/2/3 171/2/3
f 174/2/3 172/2/3 173/2/3
f 175/2/4 176/2/4 177/2/4
f 177/2/4 176/2/4 178/2/4
f 179/2/4 180/2/4 181/2/4
f 181/2/4 180/2/4 182/2/4
f 183/2/4 184/2/4 185/2/4
f 185/2/4 184/2/4 186/2/4
f 187/1/4 188/1/4 189/1/4
f 189/1/4 188/1/4 190/1/4
f 191/1/4 192/1/4 193/1/4
f 193/1/4 192/1/4 194/1/4
f 195/2/4 196/2/4 198/2/4
f 198/2/4 196/2/4 199/2/4
f 197/1/4 198/1/4 200/1/4
f 198/1/4 199/1/4 200/1/4
f 200/1/4 199/1/4 201/1/4
f 201/1/4 199/1/4 202/1/4
f 201/2/4 202/2/4 203/2/4
f 203/2/4 202/2/4 204/2/4
f 205/2/4 206/2/4 207/2/4
f 207/2/4 206/2/4 208/2/4
f 209/2/4 210/2/4 211/2/4
f 211/2/4 210/2/4 212/2/4
f 213/2/4 214/2/4 215/2/4
f 215/2/4 214/2/4 216/2/4
f 217/2/4 218/2/4 221/2/4
f 219/2/4 220/2/4 222/2/4
f 222/2/4 220/2/4 223/2/4
f 221/2/4 222/2/4 223/2/4
f 223/2/4 220/2/4 224/2/4
f 221/2/4 223/2/4 225/2/4
f 221/2/4 225/2/4 227/2/4
f 225/2/4 226/2/4 227/2/4
f 227/2/4 226/2/4 228/2/4
f 217/2/4 221/2/4 229/2/4
f 221/2/4 227/2/4 229/2/4
f 229/2/4 227/2/4 230/2/4
f 228/2/4 226/2/4 231/2/4
f 231/2/4 226/2/4 232/2/4
f 236/1/5 234/1/5 233/1/5
f 237/1/5 234/1/5 236/1/5
f 239/1/5 236/1/5 235/1/5
f 239/1/5 238/1/5 237/1/5
f 239/1/5 237/1/5 236/1/5
f 240/1/5 238/1/5 239/1/5
f 241/1/5 238/1/5 240/1/5
f 242/1/5 238/1/5 241/1/5
f 243/1/5 241/1/5 240/1/5
f 244/1/5 241/1/5 243/1/5
f 247/2/5 246/2/5 245/2/5
f 248/2/5 246/2/5 247/2/5
f 253/2/5 250/2/5 249/2/5
f 254/2/5 250/2/5 253/2/5
f 255/2/5 252/2/5 251/2/5
f 256/2/5 252/2/5 255/2/5
f 261/2/5 258/2/5 257/2/5
f 262/2/5 258/2/5 261/2/5
f 263/2/5 260/2/5 259/2/5
f 264/2/5 260/2/5 263/2/5
f 265/2/5 247/2/5 245/2/5
f 266/2/5 246/2/5 248/2/5
f 267/2/5 265/2/5 245/2/5
f 267/2/5 266/2/5 265/2/5
f 268/2/5 246/2/5 266/2/5
f 268/2/5 266/2/5 267/2/5
f 271/2/5 270/2/5 269/2/5
f 272/2/5 270/2/5 271/2/5
f 273/2/5 270/2/5 272/2/5
f 274/2/5 270/2/5 273/2/5
f 275/2/5 271/2/5 269/2/5
f 276/2/5 270/2/5 274/2/5
f 277/2/5 275/2/5 269/2/5
f 278/2/5 270/2/5 276/2/5
f 279/2/5 277/2/5 269/2/5
f 282/2/5 270/2/5 278/2/5
f 283/2/5 281/2/5 280/2/5
f 283/2/5 282/2/5 281/2/5
f 283/2/5 279/2/5 269/2/5
f 283/2/5 280/2/5 279/2/5
f 284/2/5 270/2/5 282/2/5
f 284/2/5 282/2/5 283/2/5
f 289/2/5 286/2/5 285/2/5
f 290/2/5 286/2/5 289/2/5
f 291/2/5 288/2/5 287/2/5
f 292/2/5 288/2/5 291/2/5
f 297/2/5 294/2/5 293/2/5
f 298/2/5 294/2/5 297/2/5
f 299/2/5 296/2/5 295/2/5
f 300/2/5 296/2/5 299/2/5
f 301/2/6 302/2/6 303/2/6
f 303/2/6 302/2/6 304/2/6
f 305/2/6 306/2/6 307/2/6
f 307/2/6 306/2/6 308/2/6
f 309/2/6 310/2/6 311/2/6
f 311/2/6 310/2/6 312/2/6
f 313/2/6 314/2/6 315/2/6
f 315/2/6 314/2/6 316/2/6
f 317/2/6 318/2/6 319/2/6
f 319/2/6 318/2/6 320/2/6
f 321/2/6 322/2/6 325/2/6
f 325/2/6 322/2/6 326/2/6
f 323/2/6 324/2/6 327/2/6
f 327/2/6 324/2/6 328/2/6
f 329/2/6 330/2/6 331/2/6
f 331/2/6 330/2/6 332/2/6
f 333/2/6 334/2/6 337/2/6
f 335/2/6 336/2/6 338/2/6
f 333/2/6 337/2/6 339/2/6
f 337/2/6 338/2/6 339/2/6
f 339/2/6 338/2/6 340/2/6
f 338/2/6 336/2/6 341/2/6
f 340/2/6 338/2/6 341/2/6
f 341/2/6 336/2/6 342/2/6
f 340/2/6 341/2/6 344/2/6
f 344/2/6 341/2/6 345/2/6
f 343/2/6 344/2/6 347/2/6
f 345/2/6 346/2/6 347/2/6
f 344/2/6 345/2/6 347/2/6
f 347/2/6 346/2/6 348/2/6
f 343/2/6 347/2/6 349/2/6
f 349/2/6 347/2/6 350/2/6
f 348/2/6 346/2/6 351/2/6
f 351/2/6 346/2/6 352/2/6
